<?xml version="1.0" encoding="UTF-8"?>
<svg width="14px" height="14px" viewBox="0 0 14 14" version="1.1" xmlns="http://www.w3.org/2000/svg" xmlns:xlink="http://www.w3.org/1999/xlink">
    <!-- Generator: Sketch 44.1 (41455) - http://www.bohemiancoding.com/sketch -->
    <title>icon_fxgn</title>
    <desc>Created with Sketch.</desc>
    <defs></defs>
    <g id="Page-1" stroke="none" stroke-width="1" fill="none" fill-rule="evenodd">
        <g id="Artboard-7-Copy-10" transform="translate(-16.000000, -431.000000)" fill="#666666">
            <path d="M20.9,438.509091 L17.5590909,438.509091 C16.7,438.509091 16,439.209091 16,440.068182 L16,443.409091 C16,444.3 16.7,445 17.5590909,445 L20.9,445 C21.7590909,445 22.4590909,444.3 22.4590909,443.440909 L22.4590909,440.1 C22.4909091,439.209091 21.7909091,438.509091 20.9,438.509091 L20.9,438.509091 Z M20.9,431 L17.5590909,431 C16.7,431 16,431.7 16,432.559091 L16,435.9 C16,436.759091 16.7,437.459091 17.5590909,437.459091 L20.9,437.459091 C21.7590909,437.459091 22.4590909,436.759091 22.4590909,435.9 L22.4590909,432.559091 C22.4909091,431.7 21.7909091,431 20.9,431 L20.9,431 Z M28.4409091,438.509091 L25.1,438.509091 C24.2409091,438.509091 23.5409091,439.209091 23.5409091,440.068182 L23.5409091,443.409091 C23.5409091,444.268182 24.2409091,444.968182 25.1,444.968182 L28.4409091,444.968182 C29.3,444.968182 30,444.268182 30,443.409091 L30,440.1 C30,439.209091 29.3,438.509091 28.4409091,438.509091 L28.4409091,438.509091 Z M28.4409091,431 L25.1,431 C24.2409091,431 23.5409091,431.7 23.5409091,432.559091 L23.5409091,435.9 C23.5409091,436.759091 24.2409091,437.459091 25.1,437.459091 L28.4409091,437.459091 C29.3,437.459091 30,436.759091 30,435.9 L30,432.559091 C30,431.7 29.3,431 28.4409091,431 L28.4409091,431 Z" id="icon_fxgn"></path>
        </g>
    </g>
</svg>