<?xml version="1.0" encoding="UTF-8"?>
<svg width="14px" height="13px" viewBox="0 0 14 13" version="1.1" xmlns="http://www.w3.org/2000/svg" xmlns:xlink="http://www.w3.org/1999/xlink">
    <!-- Generator: Sketch 44.1 (41455) - http://www.bohemiancoding.com/sketch -->
    <title>icon_kjsjy</title>
    <desc>Created with Sketch.</desc>
    <defs></defs>
    <g id="Page-1" stroke="none" stroke-width="1" fill="none" fill-rule="evenodd">
        <g id="Artboard-7-Copy-10" transform="translate(-16.000000, -352.000000)" fill-rule="nonzero" fill="#666666">
            <path d="M22.4634696,362.93492 L24.8303707,362.93492 L24.8303707,357.880264 C24.8303707,357.332274 24.2903406,356.888218 23.741729,356.888218 L22.4634696,356.888218 C21.9145316,356.888218 21.4697643,357.332274 21.4697643,357.880264 L21.4697643,361.725877 L21.466204,361.725877 L21.466204,362.931368 L22.4293418,362.931368 C22.4406184,362.931963 22.4518951,362.93492 22.4634696,362.93492 Z M26.4189999,362.924575 L28.7862131,362.924575 L28.7862131,354.526967 C28.7862131,353.979132 28.3411195,353.534921 27.7921958,353.534921 L26.4189999,353.534921 C25.8703599,353.534921 25.4255925,353.979132 25.4255925,354.526967 L25.4255925,361.715518 L25.422018,361.715518 L25.422018,362.921009 L26.3851558,362.921009 C26.3964608,362.921603 26.4074254,362.924575 26.4189999,362.924575 Z M16.0095767,363.220754 L16.0095767,364.192223 L29.9971106,364.192223 L29.9971106,363.220754 L16.0095767,363.220754 Z M18.4316695,362.953856 L20.8745567,362.953856 L20.8745567,352.997601 C20.8745567,352.449922 20.5813926,352.00571 20.0327668,352.00571 L18.5266343,352.00571 C17.9776964,352.00571 17.5329148,352.449922 17.5329148,352.997601 L17.5329148,361.725877 L17.5293687,361.725877 L17.5293687,362.950318 L18.3975701,362.950318 C18.4091304,362.950757 18.4201092,362.953856 18.4316695,362.953856 Z" id="icon_kjsjy"></path>
        </g>
    </g>
</svg>