<?xml version="1.0" encoding="UTF-8"?>
<svg width="14px" height="13px" viewBox="0 0 14 13" version="1.1" xmlns="http://www.w3.org/2000/svg" xmlns:xlink="http://www.w3.org/1999/xlink">
    <!-- Generator: Sketch 44.1 (41455) - http://www.bohemiancoding.com/sketch -->
    <title>icon_fxjk</title>
    <desc>Created with Sketch.</desc>
    <defs></defs>
    <g id="Page-1" stroke="none" stroke-width="1" fill="none" fill-rule="evenodd">
        <g id="Artboard-7-Copy-10" transform="translate(-16.000000, -473.000000)" fill-rule="nonzero" fill="#666666">
            <path d="M29.3,473 L16.7,473 C16.3033333,473 16,473.300899 16,473.694382 L16,482.489883 C16,482.883366 16.3033333,483.184265 16.7,483.184265 L22.0666667,483.184265 L22.0666667,484.110107 L20.4333333,484.110107 C20.1766667,484.110107 19.9666667,484.318422 19.9666667,484.573029 C19.9666667,484.827635 20.1766667,485.03595 20.4333333,485.03595 L25.5666667,485.03595 C25.8233333,485.03595 26.0333333,484.827635 26.0333333,484.573029 C26.0333333,484.318422 25.8233333,484.110107 25.5666667,484.110107 L23.9333333,484.110107 L23.9333333,483.184265 L29.3,483.184265 C29.6966667,483.184265 30,482.883366 30,482.489883 L30,473.694382 C30,473.300899 29.6966667,473 29.3,473 Z M29.0666667,481.10112 L16.9333333,481.10112 L16.9333333,474.157303 L29.0666667,474.157303 L29.0666667,481.10112 Z" id="icon_fxjk"></path>
        </g>
    </g>
</svg>