<?xml version="1.0" encoding="UTF-8"?>
<svg width="14px" height="14px" viewBox="0 0 14 14" version="1.1" xmlns="http://www.w3.org/2000/svg" xmlns:xlink="http://www.w3.org/1999/xlink">
    <defs></defs>
    <g id="大屏完稿" stroke="none" stroke-width="1" fill="none" fill-rule="evenodd">
        <g id="icon_sjypz-copy" fill-rule="nonzero" fill="#666666">
            <polygon id="Shape" points="6.70252694 0 0 3.83053793 6.70252694 7.6609931 13.4051643 3.83053793"></polygon>
            <path d="M0.256408117,6.92126897 L6.88428739,11.0616828 C6.94855126,11.1023278 7.02341865,11.1230515 7.09945156,11.1212414 C7.16934916,11.1219707 7.2379822,11.1025985 7.2971685,11.0654345 L13.5349143,7.16772414 C13.7264474,7.04824828 13.7880925,6.77704828 13.6741609,6.5614069 C13.5592632,6.34670345 13.3107781,6.26924138 13.119245,6.38871724 L7.14489167,10.1213793 L0.698220724,6.09324138 C0.494623624,5.96623448 0.231148273,6.04846897 0.109266077,6.27713103 C-0.0126713313,6.50584828 0.0532527193,6.79426207 0.256408117,6.92126897 Z M13.1193002,9.25633103 L7.14489167,12.9890759 L0.698220724,8.96088276 C0.494623624,8.83390345 0.231148273,8.91605517 0.109266077,9.14477241 C-0.0126713313,9.37343448 0.0532527193,9.66190345 0.256408117,9.78891034 L6.88428739,13.9293793 C6.94880689,13.9701762 7.02401007,13.990879 7.10033497,13.9888552 C7.1699499,13.9894493 7.23827367,13.9700711 7.29719611,13.9330207 L13.5349419,10.0353655 C13.726475,9.91586207 13.7881201,9.64468966 13.6741885,9.42904828 C13.5592908,9.21437241 13.3108057,9.13685517 13.1193002,9.25633103 L13.1193002,9.25633103 Z" id="Shape"></path>
        </g>
    </g>
</svg>