<?xml version="1.0" encoding="UTF-8"?>
<svg width="14px" height="14px" viewBox="0 0 14 14" version="1.1" xmlns="http://www.w3.org/2000/svg" xmlns:xlink="http://www.w3.org/1999/xlink">
    <defs></defs>
    <g id="大屏完稿" stroke="none" stroke-width="1" fill="none" fill-rule="evenodd">
        <g id="icon_fxgnf-copy" fill-rule="nonzero" fill="#666666">
            <path d="M11.5973888,8.09228657 C9.54232526,9.34829667 6.85950845,8.69853536 5.60505598,6.64078198 C4.35074726,4.58318852 4.99990213,1.89708628 7.05499759,0.64086829 C9.11001318,-0.614933925 11.7927342,0.0350512653 13.0471707,2.09256478 C14.3013516,4.15025419 13.6523245,6.83624449 11.5973888,8.09228657 Z M11.7518156,2.8842175 C10.9339715,1.5429734 9.18517428,1.11939402 7.84567445,1.93805616 C6.5060788,2.7567343 6.0828065,4.50774124 6.90049089,5.8490333 C7.71820723,7.1904533 9.46706833,7.61395272 10.8066161,6.79529058 C12.1461798,5.9765325 12.5694361,4.22554156 11.7518156,2.8842175 Z" id="Shape"></path>
            <path d="M11.8912453,7.21910985 C11.9994192,7.28400283 12.0934744,7.37179545 12.1658245,7.48141628 L13.8523335,10.0562346 C14.1417181,10.4947499 13.9737476,11.1165583 13.477119,11.445117 L13.477119,11.445117 C12.9805223,11.7736276 12.3433778,11.6844918 12.0540092,11.2459285 L10.3675162,8.67114215 C10.0781316,8.23262682 10.2461181,7.61081843 10.7427148,7.28227575 L10.7427148,7.28227575 C11.1151822,7.03586475 11.5666919,7.02443092 11.8912453,7.21910985" id="Shape"></path>
            <path d="M4.67114818,1.72401169 C4.67114818,2.22471744 4.26576377,2.63061037 3.76568534,2.63061037 L0.915984056,2.63061037 C0.415905616,2.63061037 0.0105212107,2.22471744 0.0105212107,1.72401169 L0.0105212107,1.72401169 C0.0105212107,1.22330594 0.415905616,0.817413013 0.915984056,0.817413013 L3.76566935,0.817413013 C4.26574781,0.817413013 4.67114818,1.22330594 4.67114818,1.72401169 L4.67114818,1.72401169 Z" id="Shape"></path>
            <path d="M5.62942823,7.150283 C5.62942823,7.65098875 5.22404383,8.05688168 4.72396539,8.05688168 L0.915984056,8.05688168 C0.415905616,8.05688168 0.0105212107,7.65097276 0.0105212107,7.150283 L0.0105212107,7.150283 C0.0105212107,6.64957725 0.415905616,6.2437003 0.915984056,6.2437003 L4.72394941,6.2437003 C5.22402785,6.2437003 5.62942823,6.64959323 5.62942823,7.150283 L5.62942823,7.150283 Z" id="Shape"></path>
            <path d="M11.6985352,12.5765863 C11.6985352,13.077276 11.2931349,13.483169 10.7930724,13.483169 L0.915984056,13.483169 C0.415905616,13.483169 0.0105212107,13.0772601 0.0105212107,12.5765863 L0.0105212107,12.5765863 C0.0105212107,12.0758805 0.415905616,11.6700036 0.915984056,11.6700036 L10.7930564,11.6700036 C11.2931349,11.6699876 11.6985352,12.0758805 11.6985352,12.5765863 L11.6985352,12.5765863 Z" id="Shape"></path>
        </g>
    </g>
</svg>